<svg xmlns="http://www.w3.org/2000/svg" width="128" height="128" viewBox="0 0 128 128">
    <path d="M104.507 93.106C88.621 63.815 65.645 19.807 63.528 10.315c0 0-4.615 11.633-12.845 29.555 2.996 4.643 10.373 9.645 13.073 12.855-9.321-2.941-14.997-8.792-14.997-8.792-9.577 20.631-23.104 47.827-38.444 72.94 7.321-3.74 27.493-16.098 41.972-17.724-.488-6.829-.326-26.179 10.899-26.504 11.225-.325 13.99 16.098 12.364 26.667 10.411 2.277 33.837 12.521 42.134 18.374l-8.866-16.748s-12.282-8.374-18.22-12.683c7.646.163 12.011 3.806 13.909 4.853z"
    fill="#0EA372"/>
</svg>
